<svg width="350" height="275" xmlns="http://www.w3.org/2000/svg">
  <path d="M160.656 45.351c1.116 3.044 3.298 4.109 4.972 3.348-3.703-.457-.71-6.848-5.53-6.848-.253 0-.507.052-.76.104-.812-.863-1.725-1.217-3.146-1.217-2.029 0-5.53 1.928-5.53 6.037 0 8.725 10.147 9.486 10.147 17.247 0 2.232-1.674 3.653-3.602 3.653-1.725 0-3.095-1.928-4.515-4.921-.71-1.42-2.181-3.399-3.754-5.428.508.304 1.014.508 1.522.508a1.76 1.76 0 0 0 1.42-.508c.356-.304.559-.812.61-1.37v-.052c0-.71-.304-1.42-.863-1.978-.508-.609-1.267-.913-1.978-.964-.559 0-1.065.203-1.42.508a1.964 1.964 0 0 0-.56 1.37v.104c0 .304.053.609.153.913-2.181-2.892-4.21-5.682-4.21-7.204 0-1.37.912-2.536 2.08-4.007.051.052.404.253.404.253l.304-.356c.406-.456 1.268-1.37 2.993-3.246l.104-.104.405-.457-1.064-.863c.253-.66.558-1.37.71-2.181.354 1.42 1.065 2.334 2.08 2.03-.66-1.472.66-3.4-.203-6.95.812 1.369 2.03 2.08 2.891 1.826-2.282-1.979.66-4.769-2.282-9.08.963.354 1.623.151 2.029-.305-2.689-.405-1.471-3.804-6.138-5.022 1.166-.202 1.826-.913 1.674-1.522-1.268.913-2.334-1.674-6.392-1.572-.253-1.522-1.674-3.145-3.247-3.906.304 1.166 0 2.232-.304 3.145l-13.24-13.037c-.405-.355-.609-.456-.71-.304-.104.152-.104.356.152.66l11.363 14.254c-.862.304-1.674.66-2.587.964-.558.202-.964.76-.964 1.47-2.13 1.066-3.956 2.334-4.87 3.197-.71.609-1.268.76-.66 2.232.254.508-.507 1.877 1.167.913 1.065-.66 3.5-2.03 3.855-1.166.203.457-1.014 1.014-1.826 1.318-.812.356-1.725.964-1.623 1.27.152.354.811 0 .862.354.052.356.304.71.61.71.355 0 .76-.71 1.064-.457.253.203-.152 1.775-.405 2.181 1.269-.202 2.08-1.42 2.13-2.384.053-.963.304-1.167.508-1.319.203-.104.405 1.065.152 1.725.71-.152 1.37-1.014 1.32-2.689.303-.253.659-.457.912-.457.457 0 1.32 1.166 2.537 1.166 2.232 0 3.5-1.826 3.652-2.688.104-.66.052-1.37-.356-1.877.812.66 1.065 1.674 1.065 2.435 0 3.196-5.63 4.718-7.913 6.899-.104.052-.203.152-.304.253l-2.638-1.014-.152.558c0 .052-.052.152-.152.508-.304.913-.862 2.79-1.217 3.906l-.152.405.253.152c-1.572 2.08-2.84 4.414-3.145 6.798-.609-.66-1.217-1.168-1.927-1.725.104-.253.152-.508.152-.761.052-.71-.152-1.37-.61-1.877-.303-.354-.76-.558-1.216-.609a1.76 1.76 0 0 0-1.269.508c-.104.052-.152.152-.253.253-.104-.104-.152-.203-.254-.253-.912-.66-1.978-1.471-2.637-2.182-.254-.303-.559-.457-1.116-.457-.253 0-.811-.052-1.217-.052-.355 0-.609.304-1.065.71-.202.203-.811.66-1.47 1.168.303.355.608.66.963 1.014.152.203.304.406.508.61.152-.152.304-.254.456-.356.253-.203.609-.254.963-.254.356 0 .812.203 1.168.71.202.406 2.384 3.197 4.16 5.124-.203.104-.406.152-.61.254-.71.303-2.435.202-3.196.152-.76-.052-.913-.254-1.42.558-.203.354-.456.71-.71 1.014-.254.304-.458.66.103 1.573.761 1.319 2.689 4.768 3.348 6.34.66 1.573 1.421 1.827 2.638 2.334 1.217.508 3.348 1.725 3.602 2.03l.052-1.217c-.356-.356-1.522-.812-1.978-.964-.456-.202-.559-.356 0-.356.507 0 1.978.508 3.043.964-.304-1.217-1.42-2.486-2.13-3.196-.862-.304-1.776-.304-2.13 0 .051.253-.153.558-.509.558-.354 0-.609-.303-.457-.609.104-.354.61-.455.508-1.166-.104-.66-.964-.76-1.471-.811a45.53 45.53 0 0 1-2.03-3.348c-.404-.66-.151-1.015.105-1.217.66-.559 1.978.253 4.667.405.963.104 2.13.152 3.348.202.354 3.146 1.623 6.088 5.935 7.153 2.13.559 4.362 2.13 5.123 4.16-8.725-.152-10.095 3.247-10.095 6.442 0 3.602 3.095 3.4 3.095 6.139 0 2.384-7.305 3.348-9.537 3.703-1.877.253-2.942.66-3.855 1.572-.863.913-1.776 1.776-3.399 3.399 0 0 .66.152 1.37.104l1.216-1.573c.355-.558.66-1.014.863-.963.253.052.104.457-.203 1.014l-1.014 1.725c4.312.303 4.565-1.32 4.565-1.928 0-.66-1.064-1.116-.455-1.522.66-.405 1.166-.152 1.674.456.457.558.66 1.065 1.826.609 0 0 9.334-3.906 10.5-4.413 1.065-.508.762-.964.152-1.472-.71-.609-.811-1.521-.811-2.485 0-2.84 1.674-3.703 4.718-3.653-.052.456-.052.964-.052 1.37 0 4.413 6.645 8.725 8.471 8.725.812 0 1.877-.609 1.928 2.03.052 1.978.456 3.347.104 5.63-.355 2.232-1.014 2.587-2.334 3.551-1.37.964-2.638 3.957-3.246 4.566.609.405 1.268.457 1.775-1.014.405-1.167.913-2.03 1.42-2.334-.558 1.319-.912 3.297-1.167 3.855 1.725.304 4.464-1.268 4.464-2.435 0-1.216-.963-1.115-.963-1.927 0-.355.457-.761.963-.761.66 0 1.217.558 1.269.811.71-.405 1.217-1.167 1.166-2.942 0-.66 0-1.37-.052-2.13.052.151.104.202.152.303.304.508.863.812 1.522.863a2.788 2.788 0 0 0 1.877-.508c.66-.456 1.167-1.065 1.269-1.776.052-.152.052-.303.052-.455 0-.356-.104-.71-.304-1.015-.254-.455-.71-.71-1.27-.862-.659-.104-1.47.052-2.13.508-.609.405-1.065.963-1.216 1.623-.152-2.435-.355-4.667-.254-5.58.104-1.37.152-1.978-.304-2.181-.455-.203-.963.558-1.623.558s-2.587-1.775-2.587-3.703 2.03-4.363 1.928-7c0-.812.507-1.217.811-.456.405.862.964 2.08 1.877 3.094-.558 3.247 3.044 6.442 6.037 4.058-1.471.253-2.486-1.065-3.145-2.384.253.052.508.104.811.104.152 0 .304-.052.456-.052 1.015 1.319 4.312 1.217 5.175-2.03-.559.711-1.725 1.218-2.638 1.066 1.267-.964 1.927-2.537 1.927-4.262 0-8.319-10.095-9.283-10.095-16.841 0-2.841 2.435-4.617 4.16-4.617.66 0 1.168.203 1.573.457-.66.71-1.014 1.725-.964 2.943.253 5.986 10.044 5.681 10.197 8.573 1.064-4.363-6.24-3.044-6.494-8.878m-26.023-22.98c.507-.913 0-2.282 1.674-2.282.811 0 1.522.811 2.485 1.166-1.572.104-2.993.457-4.16 1.115m-8.927 18.364c-.052.508-.203.913-.508 1.217-.152.104-.405.253-.66.253-.558-.052-1.014-.71-1.014-1.471v-.104c.052-.508.202-.913.508-1.217.152-.104.405-.253.66-.253.303.052.507.202.608.354.304.304.456.761.406 1.217m28.915 42.054c.052-.457.405-.913.862-1.217.508-.304 1.014-.457 1.522-.356.202.052.507.152.71.457.203.304.152.61.152.812a2.292 2.292 0 0 1-.913 1.268c-.862.507-1.826.457-2.232-.104-.203-.304-.152-.61-.104-.863m-6.087-27.9c0-.203.052-.559.304-.761.253-.253.558-.304.811-.304.456.052.964.253 1.37.71.405.406.609.913.609 1.42-.052.203-.104.509-.355.762-.253.253-.558.253-.76.253-.508 0-1.015-.253-1.42-.66-.355-.405-.61-.963-.56-1.42m-16.587-18.82c.455-1.471 1.37-4.414 1.37-4.414l1.521.61c-.456.202-1.014.609-1.471 1.064.356.152.963.152 1.37-.103l-.61 1.521c-.151-.253-.558-.811-1.014-.862-.304 1.217.508 1.674 1.065 1.978.913.458 1.522.559 1.776.104.304-.507-.304-1.268-1.065-.913-.104-.811.354-1.267.862-1.267.456 0 .761.405.913.913-.104-1.319.508-2.334 1.725-2.689.457 1.27.104 2.13-.863 3.044.508-.203 1.065-.152 1.27.203.303.405.202 1.064-.509 1.42-.152-.812-1.115-.913-1.42-.355-.253.559.152 1.065 1.014 1.522 1.014.559 1.826.253 2.334-.66-.304-.103-.913-.051-1.42.304l1.014-1.927c.052.304.202.76.66 1.115.151-.405.354-1.166.051-1.826l2.232 1.269c-.76.052-1.319.609-1.572.964a1.772 1.772 0 0 0 1.268 0l-1.166 1.877c.052-.66-.152-1.168-.457-1.42-.457.912-.354 1.775.61 2.383.861.508 1.52.61 1.876.104.304-.558-.253-1.319-1.065-1.065 0-.811.456-1.216 1.014-1.167.406 0 .71.508.812 1.014.304-1.269.862-2.029 2.181-2.283.304 1.268-.303 2.283-1.47 2.892.507-.152 1.014-.052 1.216.304.253.457.152 1.065-.609 1.37-.104-.812-1.065-.964-1.37-.458-.253.405.104.913 1.015 1.471.558.356 1.319.812 2.232-.104-.304-.303-1.015-.405-1.268-.405l1.014-1.319c-.052.508.304 1.065.61 1.268.151-.66.253-1.32.202-1.776l1.269 1.015s-2.08 2.232-3.095 3.399zm13.696 34.495c-.558.812-1.522 1.065-2.13.66-.61-.457-.66-1.42-.104-2.232.558-.761 1.47-1.065 2.08-.61.66.458.71 1.421.151 2.182m3.957-6.29c-.558.811-1.47 1.065-2.08.609-.66-.405-.66-1.42-.151-2.182.558-.811 1.521-1.065 2.13-.66.61.458.66 1.472.104 2.233m-24.56-15.419a1.767 1.767 0 0 0-1.116.964c-.559 1.115.104 2.486 1.42 3.145.71.304 1.522.405 2.181.152.559-.203.964-.508 1.168-.964.202-.457.202-1.014.052-1.521a2.958 2.958 0 0 0-1.522-1.624c-.71-.304-1.522-.405-2.181-.152m.66 3.298c-.863-.405-1.32-1.27-1.015-1.928.152-.304.457-.456.66-.558.457-.152 1.014-.104 1.522.151.508.203.913.66 1.065 1.116.052.203.104.508 0 .812a1.611 1.611 0 0 1-.66.558c-.456.152-1.014.104-1.573-.152m15.926 24.097c-.507.457-.811 1.216-.811 2.029v.052c0 .76.253 1.521.76 1.978.357.405.863.66 1.37.66.508 0 .964-.203 1.37-.61.508-.456.812-1.216.862-2.028a3.23 3.23 0 0 0-.558-1.827 2.242 2.242 0 0 0-1.573-.862 2 2 0 0 0-1.42.609m1.319 3.805c-.355 0-.61-.152-.761-.304-.355-.355-.508-.913-.508-1.471 0-.559.203-1.065.558-1.42.152-.153.456-.355.812-.305.71 0 1.268.812 1.217 1.776 0 .558-.203 1.115-.558 1.42-.152.152-.406.355-.761.304m-15.978-45.759c-1.065.812-1.37 2.232-.71 3.095.66.862 2.08.913 3.144.052.559-.405.964-1.065 1.015-1.674.052-.508-.052-1.015-.355-1.37-.253-.355-.71-.61-1.167-.66-.66-.104-1.37.152-1.928.559m-.203 1.978c0-.405.254-.913.71-1.267.406-.304.863-.458 1.268-.406.203 0 .457.104.66.355.203.202.203.508.152.71-.052.405-.304.812-.71 1.116-.66.508-1.522.558-1.928.052-.104-.152-.152-.304-.152-.559m18.872 45.602a2 2 0 0 0-.863 1.27c-.103.558.104 1.165.508 1.673.457.456 1.014.812 1.725.913.66.104 1.37 0 1.877-.253.609-.356 1.014-.812 1.115-1.42.203-1.167-.811-2.334-2.232-2.588-.76-.152-1.572 0-2.13.406m1.522 2.993c-.964-.152-1.674-.913-1.522-1.573a1.09 1.09 0 0 1 .457-.71c.405-.304.963-.406 1.522-.304.862.152 1.522.811 1.522 1.47v.153c-.152.71-1.015 1.167-1.979.963m11.11-6.138a3.399 3.399 0 1 0 6.797 0 3.399 3.399 0 0 0-6.798 0m.862 0a2.544 2.544 0 0 1 2.537-2.536c1.37 0 2.486 1.167 2.486 2.536 0 1.42-1.116 2.537-2.486 2.537a2.511 2.511 0 0 1-2.537-2.537M81.42 59.352c.304-.812-1.217-1.775-1.42-2.993-.152-1.217 0-2.333-1.37-3.957-1.37-1.572-6.088-6.594-7.508-8.218.356-.052 1.217-.202 2.08.61.508.457 1.522 1.42 2.435 2.333 1.269-3.145 2.79-5.53 5.022-8.015.253-.304.558-.61.812-.913-.761.253-2.03.457-2.74.913-.104-1.37.052-2.486-.913-3.348.355-1.928.052-4.261-4.26-7.153 2.18.559 3.5 2.537 5.173 1.014-1.47-.052-1.522-3.398-7-6.138 2.08-.052 3.703 3.348 6.138 1.42-2.283-.253-3.044-4.311-7.153-5.58 1.42.152 2.892.863 4.11-.811-1.421.354-2.283-.964-3.805-1.065.558-1.775.457-2.892-.152-4.21-1.116.052-2.182.405-2.993 1.014-.104-.964-1.166-1.014-2.08-.964.104.457.304 1.065-.203 1.116-.71.152-3.195.811-5.072 1.572-1.877.71-4.059 2.08-4.667 2.486-.406.253-.71-.355-.964-.61-.66.56-1.319 1.268-.812 2.03-1.065.104-2.232.355-3.196 1.166 0 1.217 1.015 2.384 2.486 3.044-2.536 2.536-.202 4.87-2.435 7.051 3.145.152 2.587-4.261 4.16-4.87-.152 3.095-1.877 3.653-1.877 6.95 0 1.826 1.065 3.754.104 4.92 2.638-.76 1.978-6.594 3.602-8.319.303 1.014.103 1.979-.203 2.942-.964 2.74.104 6.443-1.37 7.66 2.689-.253 3.044-4.565 5.225-6.138-1.877 3.856-3.855 12.124-6.696 16.284-4.565 6.189-7.254 13.747-11.464 13.747-1.877 0-3.247-1.166-3.247-3.5 0-7.051 12.023-11.87 12.023-19.378 0-3.297-2.689-4.616-4.414-4.616-1.115 0-2.485.609-3.703 1.572a2.908 2.908 0 0 0-1.37-.355c-4.26 0-3.145 7.66-6.848 7.609 1.471.811 4.008-.812 5.479-2.942-.61 4.97-7.762 3.652-7.204 9.638 1.015-4.667 12.378-4.008 12.378-11.11 0-.76-.405-1.47-.964-1.978.863-.558 1.674-.761 2.385-.761 1.37 0 2.638 1.014 2.638 3.044 0 6.29-12.023 11.566-12.023 19.276 0 1.32.405 2.385 1.014 3.247-.811.355-1.724.203-2.435-.66-.052 1.979 2.79 3.247 4.566 2.232.405.152.811.203 1.217.254-.508 1.47-2.334 1.927-3.298 1.826 2.943 2.333 8.066-.71 7.762-3.298 2.333-1.927 3.804-5.123 5.53-7.254-.153.508-.204.964-.305 1.471-1.725 3.146-3.297 5.936-3.754 10.045-.405 3.45-2.13 6.544-4.565 6.544-.508 0-1.37-.66-1.826-.355-.71.66 0 1.37 0 1.978 0 1.015-1.877 1.979-1.877 4.972 0 1.37.76 2.993.455 3.906.761-.405 1.827-1.674 2.233-3.348.811 4.007-1.725 3.804.103 7.355.254-1.166 1.42-1.623 2.131-1.166.71.508.405.812-.152 1.37-.508.508-1.014 3.196 1.42 3.043-.457-.303-.507-1.014.71-1.267 1.675-.356 2.131.405 3.907.405 1.115 0 1.42-1.42 2.283-1.42.862 0 .862.71.558 1.166 1.42-.355 1.674-1.116 1.674-1.928 0-.76-.66-1.268-.152-1.572.508-.304 2.13.052 1.471 1.37.863-.153 1.32-.762 1.32-1.776 0-1.065-1.168-1.623-2.284-1.471-.202-.61-1.115-.964-2.029-.964-1.927 0-1.623 1.573-2.993 1.573-2.13 0-4.26-2.841-4.26-7.559 0-2.536 2.738-3.196 4.666-4.007 1.928-.812 5.327-2.892 7.356-6.29 1.572-2.69 1.623-5.58 1.42-9.03 2.689 1.522 3.044 3.804 3.044 5.428 0 2.08-1.116 2.942-1.979 3.348-.76.354-.963.202-1.064.609-.104.558.253.862.609 1.014.963.508.76 1.471 1.064 2.486.254 1.014 1.167 2.638 2.69 3.804.151-.66.103-1.623 0-2.942 2.13 1.014.404 5.225 4.463 5.225-.71-.456-.508-1.572-.104-1.725.457-.152.964.304 1.776 1.37.76 1.116.558 1.014 2.486 1.014 1.927 0 1.064-.66 2.08-.66 1.014 0 .912 1.168.354 2.03 1.725-.508 2.232-1.776 1.674-3.145 1.522-.812 2.283.355 2.536 1.167 1.472-1.471 0-3.297-1.167-3.399.052-.558-.456-1.115-1.116-1.166-.609-.052-1.216-.104-1.927-.052-.66.052-1.065 1.065-1.877 1.065-2.537 0-7.61-4.616-7.61-6.595 0-2.029 4.82-3.196 4.82-6.29 0-4.058-3.957-5.428-7.305-8.015 1.167-1.37 4.667-1.674 6.645-.71.203-1.116.964-.863 1.217-2.79.71 1.724-.052 3.195.71 3.906.559-.812 1.979-.71 1.877-2.79.457 1.268-.558 3.297.457 4.21.152-1.116.812-1.319 1.217-1.319s.761.304.761.964c0 1.623-1.978.862-1.978 2.688 0 .761.963 1.015.963 1.522 0 .456-.811 1.268-1.724.61.304.71.913 1.318 1.775 1.318.862 0 1.826-.71 2.181-1.623.458 1.167.104 2.435-.71 2.638.862.405 2.942 0 2.74-2.689 1.167.203 1.775 1.014 1.064 2.435.964-.253 1.877-.71 1.877-1.725 0-.811-.862-1.065-.507-2.08M58.644 22.928c-1.116.104-1.065-.964-2.993-1.42 1.37-.254 3.094-.964 4.616-1.523.304 1.268-.203 2.841-1.623 2.943m7.812 8.268c-1.42.61-2.537-.66-2.79-1.47-.304-.863-.508-1.573-.203-1.878.61-.609.812-1.065.457-1.826-.405-.862-1.37-.456-2.333-.203.455-.862.507-1.42-.152-1.37-.761.105-.761 1.32-1.167 1.167-.405-.152-.202-.862-.202-1.217.052-.508.354-.71.862-.913l4.11-1.572c.507-.203.912-.304 1.268.052.253.303.913.66.71 1.014-.202.405-1.065-.457-1.674 0-.508.405-.052.811.862 1.065-.862.507-1.826.862-1.521 1.775.253.812.71.964 1.572 1.014.457 0 .812.66 1.168 1.472.405.76.507 2.232-.964 2.891m.203-11.414c-1.065.863-2.537.052-3.196-1.065 1.522-.609 3.246-1.319 4.413-2.029-1.065 1.674-.304 2.385-1.217 3.095m-2.49-10.398c.303.457.455.71.455 1.065a2.353 2.353 0 0 1-.812-.71l.152 1.825c.203-.354.406-.558.66-.66-.052 1.167-.558 1.675-.963 1.776-.456.104-.863-.253-.913-.66-.104-.507.355-.811.811-.355.104-1.116-.76-1.065-1.166-.61.456-1.064.253-1.775-.66-2.333-.609.964-.355 1.623.406 2.384-.761-.354-1.37.253-.761 1.065.151-.71.76-.558.912 0 .104.508-.355 1.116-1.115 1.37-1.116.304-1.522-.406-1.776-1.015.254-.152.812-.103 1.472.304l-.559-1.775c-.253.609-.609.862-1.065 1.065-.052-.508.355-1.573.355-1.573l-2.181.913s1.014.456 1.37.862c-.457.152-.914.254-1.523 0l.812 1.624c.203-.71.558-1.166.862-1.217.203.609.457 1.37-.558 1.928-.761.355-1.522.253-1.775-.152-.254-.508.051-1.065.66-.66-.105-1.014-1.015-1.014-1.27-.253 0-1.065-.253-1.674-1.37-1.979-.303 1.065.053 1.674 1.116 2.13-.558-.103-1.217.56-.405 1.27 0-.66.559-.761.862-.304.203.304.203.811-.253 1.065-.354.253-1.014.253-1.877-.61.253-.103.508-.051.913.053l-1.167-1.42c.052.507.052.862-.052 1.115-.253-.304-.356-.559-.457-1.116l-.863.812c.812.508 1.776 1.319 2.943 2.891 1.217-.76 3.45-1.826 4.819-2.384 1.319-.558 3.652-1.319 5.073-1.623-.304-1.979-.152-3.196.103-4.16zM55.09 6.95l.66 1.37.76-.964c.053 0 .105.052.105.052.051.456.103 1.267.103 1.674 0 .558.456 1.014 1.015 1.014.558 0 1.014-.457 1.014-1.014 0-.355-.253-.71-.559-.863-.405-.303-.811-.71-1.115-1.014.052-.052.052-.104.052-.152l1.319.104-.508-1.37-.964.812h-.103l-.052-1.471-1.37.508.913 1.115c-.052 0-.052.052-.052.104zm5.022 1.065a.796.796 0 0 0 0-1.116.796.796 0 0 0-1.115 0 .796.796 0 0 0 0 1.116.796.796 0 0 0 1.115 0m1.776-1.319a.796.796 0 0 0 0-1.115.796.796 0 0 0-1.116 0 .796.796 0 0 0 0 1.115.796.796 0 0 0 1.116 0m2.08.355a.796.796 0 0 0 0-1.115.796.796 0 0 0-1.116 0 .796.796 0 0 0 0 1.115.796.796 0 0 0 1.115 0m.153 1.674c.354.304.811.304 1.115 0a.796.796 0 0 0 0-1.115.796.796 0 0 0-1.115 0 .796.796 0 0 0 0 1.115m-8.878 1.42a.747.747 0 0 0 .761-.76c0-.456-.354-.812-.76-.812a.801.801 0 0 0-.813.812c0 .457.355.76.812.76m-2.13.153c.457 0 .811-.355.811-.761a.8.8 0 0 0-.812-.812c-.405 0-.76.355-.76.812a.78.78 0 0 0 .76.76m-.405.914c0-.405-.355-.761-.812-.761a.748.748 0 0 0-.761.761c0 .456.304.812.761.812a.801.801 0 0 0 .812-.812m.253 2.13a.801.801 0 0 0-.811-.811c-.405 0-.761.354-.761.812 0 .405.356.76.76.76.457 0 .812-.354.812-.76m52.504 56.46c0 .052.104.152.203.152 1.268.356 2.688-.558 3.449-.354-.964-.355-1.623.253-2.536.051.558 0 1.115-.103 1.167-.253-.457.253-1.674-.202-2.181.104l-.104.104c-.355.104-.71.304-.71.558 0 .863 3.195.203 3.195.458 0 .253-.609.455-1.47.455-.66 0-1.725-.405-3.146-.103.104-.254.405-.61.253-.762.152-.051.203-.103.254-.202-.104-.052-.203-.104-.254-.104.052-.104 0-.152-.052-.203 0 0-.052-.103-.052-.152-.051 0-.152-.103-.303-.151-.104-.104-.203-.104-.254-.104-.052 0-.152.052-.152.052-.104 0-.152 0-.202.052-.052-.052-.104-.104-.203-.104-.052.104-.052.202 0 .355-.104 0-.253.304-.354.254l.104.104c-.104.152-.104.354-.203.354.052.052.052.104.104.152-.052.253-.104.559-.052.761-.203-.202-.508-.66-.71-.76-.152-.153-.152-.203-.152-.406 0-.152.052-.304.052-.456 0 0-.052-.104-.052-.152 0-.104-.152-.152-.254-.152.052.052.104.104.104.152-.052.052-.052.104-.052.104-.052.052-.052.104 0 .152v.104c0 .052 0 .052-.052 0 0-.104-.051-.253-.152-.253h-.103v-.052c0-.104-.104-.203-.254-.052 0 0 .104 0 .104.052s-.052.104-.052.104c0 .103.104.152.253.152v.051c.052 0 .052.052.052.052 0 .052 0 .052-.052 0-.202-.103-.303.052-.303.104v.104c-.052.052-.104.152.052.253 0-.051 0-.151.051-.151h.052l.052.051s.052 0 .104-.051h.052c.052 0 .052.051.052.051.052 0 .052 0 0 0-.104.152-.104.304.104.356 0 .254-.356.203-.304-.052-.202.304.152.559.355.406.052-.052.052 0 .052 0 0 .051.052.103.103.103 0 0 0-.052.052-.052 0 .104.052.152.152.203-.052-.052 0-.104 0-.104.052 0 0 .355.405.61.052.202.203.303.406.303.104.152.202.304.152.304-.052 0-.508-.052-.61 0-.103.052-.253.152-.405.152l-.052.052c0-.052.052-.052.052-.052-.152 0-.253 0-.304-.052-.051-.104-.051-.152-.103-.203-.052-.104-.104-.152-.152-.152h-.104c-.052-.052-.203-.103-.304-.052.104.052.152.052.202.152-.051 0-.051.052-.051.052-.052.104 0 .152.253.254 0 0 .052.052 0 .052h-.152c-.104-.104-.104-.203-.253-.152l-.052.052h-.052c-.104-.052-.304.103-.203.253 0 0 .052-.104.152-.104v.052c.052.152.104.253.356.104.052-.052.052 0 .052 0-.104.104-.253.202-.104.304 0 0 0 .052.052.052v.052c-.052.151.152.253.202.253 0-.052-.103-.104-.052-.203h.052c.152-.052.104-.253.152-.304.052 0 .052 0 .052.052s.052.203.203.203c.152 0 .202-.152.202-.253.052.052.104.103.104.152 0 0 .104-.052.104-.104.052.104.052.202-.052.304.052 0 .203-.104.254-.304.051.052.051.052.051.104h.356v.151s.052-.051.104-.051 0 .151.104.253c0-.405.253-.253.508-.457v.052a.112.112 0 0 1-.104.104c.104 0 .405-.104.405-.254 0-.052.152-.253.203-.71h.104c.354 0 .507-.253.862-.304-.104.104-.104.355-.104.508 0 .202.253.405.304.456v.052c-.104 0-.253 0-.253.052-.304.151-.304-.406-.61-.304l-.051.052c-.104 0-.304.152-.254.253.052-.052.104-.104.203-.104v.052c0 .052 0 .104.104.104.052 0 .052-.052.104-.052l.052.052c0 .104-.355-.052-.304.253 0 0 .052.052.052.104 0 .104.052.152.202.104 0 0-.103-.052-.051-.104h.051s.052 0 .052-.052c.052 0 .052 0 .052.052v.156c0 .104.152.202.304.104-.052 0-.152 0-.152-.052.052-.052.104-.052.104-.052v-.104c0-.052.052-.052.052-.052h.052c.052 0 .052 0 .052.052.052.052.152.104.253.052.203-.052.052-.203.203-.253h.104c.152.052.253.052.304 0 .052-.104.052-.356-.152-.458-.052-.052.152-.66-.304-.963.202.052.913.152 1.065 0 .202.052.457.202.457.202.052.052.052.104 0 .152-.203.104-.152.203-.304.203-.052-.052-.104-.152-.152-.152-.104-.052-.152 0-.152 0a.24.24 0 0 0-.304.104c.052 0 .104-.052.203 0v.052s0 .052.052.104v.052c-.152-.052-.355-.052-.304.052 0 .052.052.052.052.104-.104.051-.104.202-.052.253 0-.052 0-.104.104-.104.052 0 .052.052.052.052.104.052.202-.104.304-.052-.104.052-.203.104-.152.202 0 0 0 .052.051.052-.051.104-.051.203.104.254 0 0-.052-.104 0-.152h.104c.203-.104.104-.254.152-.304.104-.104.203.104.356-.052 0 0 .052-.052 0-.152h.052c0 .052.052.104.152.052-.152-.104 0-.152.052-.253h.052c.052 0 .152 0 .202-.104-.103 0-.303-.152-.151-.203.202-.104.253-.202.151-.304-.151-.202-.507-.253-.558-.507h.356c1.065 0 1.775-.304 1.725-.61 0-.76-3.247.052-3.247-.507 0-.152.203-.254.456-.355m-2.384.104a.75.75 0 0 0 .354.152c-.152.052-.104.104-.202.104-.104 0-.152-.152-.152-.253m-.203-.104c-.052.052-.152.152-.253.052-.052-.052.052-.104-.052-.254.052.104.253.203.304.203m-.356.761c.052-.104.052-.152.104-.152s.104 0 .104-.052c.052-.104 0-.104-.104-.152.104 0 .104-.052.104-.104-.052 0-.152.052-.152 0l.052-.052c.052-.052.052-.052.104 0l.303.104c0 .052.052.052.052.104 0 0 0 .104-.052.104 0 0 0-.104-.052-.104-.051 0-.051.052 0 .104-.103 0-.151-.052-.202 0 0 .052 0 .104.052.152 0 .052 0 .104-.052.152 0 .052-.104.152-.203.104-.104-.052-.104-.152-.052-.203m3.903-5.324c0 .052.104.104.203.152 1.269.355 2.689-.558 3.45-.356-.964-.354-1.573.254-2.537.052.559 0 1.116-.103 1.166-.253-.457.253-1.674-.202-2.18.104 0 .052-.053.052-.053.104-.71-.052-1.269-.052-1.269.405 0 .964 2.588.405 3.45.405.76 0 .71.104.71.254 0 .202-.963.253-1.42.253-.71 0-2.84-.356-4.11-.104.105-.203.355-.456.203-.61.104-.051.203-.151.203-.252a.385.385 0 0 0-.253-.104c.052-.052 0-.152-.052-.203 0 0-.052-.104-.052-.152-.052-.052-.152-.104-.304-.202-.152-.052-.253-.052-.304-.052 0-.052-.152 0-.152 0-.052 0-.152 0-.152.104-.104-.104-.152-.104-.253-.104-.052.104-.052.152 0 .354-.152 0-.253.253-.355.253.052.052.052.104.104.104-.104.203-.152.405-.253.405.052.052.052.104.104.104-.052.152-.052.254-.052.355h-.152c-.152-.052-.253 0-.508-.152-.202-.152-.202-.253-.202-.405 0-.203.052-.356.052-.508 0 0 0-.104-.052-.152 0-.104-.152-.203-.253-.152.051 0 .103.104.103.152-.051.052-.051.104-.051.104-.052.052-.104.104 0 .152v.156h-.052c-.052-.152-.104-.304-.203-.304h-.052v-.052c0-.104-.152-.203-.304-.052.052 0 .104 0 .104.052v.104c0 .152.052.202.203.202h.052v.052c0 .052 0 .052 0 0-.254-.052-.304.052-.304.152 0 0-.052.052 0 .052-.104.052-.104.203.052.253 0 0-.052-.103 0-.103s.052 0 .052-.052c0 .052.052.052.052.103.052 0 .052 0 .152-.051 0-.052 0-.052.051 0 0 0 .052 0 .052.051.052 0 0 0 0 0-.151.152-.103.304.104.356v.052c0 .254-.354.203-.354-.052-.203.304.152.508.405.355h.052c0 .052.052.104.104.104 0 0 0-.052.052-.052v.052c.052.052.052.152.152.152 0-.052 0-.104.052-.104.051 0 0-.104.354.052.052.104.052.104.152.152l.203-.052c0 .202.052.457 0 .457s-.406 0-.559.052c-.202.104-.609.253-.76.052-.053-.052-.053-.104-.105-.203 0-.052-.104-.104-.152-.104h-.104c-.052-.104-.202-.104-.303-.052.051 0 .152 0 .202.104-.052.052-.052.104-.052.104-.052.052-.052.152.253.253 0 0 .052.052 0 .052-.051 0-.103 0-.152-.052-.103-.052-.103-.202-.253-.104 0 0-.052 0-.104.052v-.052c-.152 0-.304.152-.253.304.052 0 .052-.104.152-.104 0 .052.052.052.052.052 0 .152.104.304.354.104.052-.052.052 0 .052 0-.104.104-.253.254-.104.356l.052.052v.052c-.052.152.152.253.203.253 0-.052-.104-.152-.052-.253l.052.052c.152-.104.104-.253.203-.304.052.052.052.253.202.253.203-.052.253-.202.253-.253v-.052c.052.052.104.104.104.203 0 0 .104-.052.104-.104.052.052.052.152-.052.304.052-.052.254-.104.254-.304.052 0 .052.052.103.052.052.052.152.052.304 0h.052v.202s.052-.104.104-.104c0 0 0 .203.104.254 0-.405.356-.304.66-.456 0-.052 0-.052 0 0s-.052.104-.104.152c.253.152.558-.253.66-.457.052 0 .052-.052.104-.104 0 .052 0 .104-.052.152.253 0 .202-.203.354-.203.812.052.203-.71 1.522-.457a.594.594 0 0 0 .355-.152c-.104.152-.104.559.104.559.103.051.253.103.303.151.052.052 0 .052 0 .052-.104 0-.202 0-.253.052-.304.203-.304-.457-.609-.304 0 0-.052 0-.104.052-.104 0-.253.152-.253.254.052 0 .104-.104.203-.104v.052c0 .052 0 .104.103.104h.156c0 .152-.354-.052-.304.253l.052.104c0 .104.104.202.254.152a.112.112 0 0 1-.104-.104h.104v-.052h.103c0 .052-.051.052-.051.104 0 0 .051.052.051.104 0 .104.152.202.304.104-.052 0-.152 0-.152-.104h.104v-.152h.104c.052-.052.052 0 .104 0 0 .104.104.152.203.104.202-.052.052-.254.202-.304h.152c.152.052.405.052.405 0 .052-.104.052-.405-.152-.508-.104-.052.052-.152-.052-.304.152.052.356.152.61.152.405 0 .609-.052.862-.203.253-.152.508-.052.558-.052.052 0 .104.052.052.104-.104.254-.052.254-.104.355-.104.104-.253.052-.405 0-.052 0-.104.052-.104.052-.152.052-.304.152-.304.304 0-.052.104-.104.203-.104v.052c-.052.152.152.202.253.052 0 0 .052 0 .052.052-.152.052-.356.202-.202.304h.051c0 .103 0 .202.104.202 0-.052 0-.052.052-.152h.104c.104 0 .104-.202.203-.253.052-.052.052-.052.052 0-.104.104-.152.253-.052.253l.052.052c.052.104.104.152.253.052l-.104-.052.104-.104c.152-.253-.052-.253-.052-.356.052-.152.253-.052.355-.303 0-.052 0-.104-.104-.152.104 0 .152 0 .202-.104-.202.052-.104-.104-.104-.203 0-.052 0-.052.052-.052.052-.052.104-.104.104-.253-.052.104-.253.152-.253 0 0 0 0-.104-.152-.052-.304 0-.71-.052-1.269-.104-.052 0-.052-.052 0-.052.559-.052 1.674-.104 1.674-.457 0-.304-.052-.508-1.014-.508-.963 0-3.196.355-3.196-.202 0-.254.457-.254.964-.203m-3.196-.052c-.052.052-.152.152-.203.052-.103-.104 0-.104-.103-.253.103.052.253.152.303.202m.203.559c-.052 0 0-.104-.104-.104-.052 0 0 .052 0 .104-.052 0-.152-.052-.152.052-.052.052-.052.052 0 .152.052 0 0 .052 0 .152-.052.052-.104.152-.253.104-.104-.052-.104-.203-.052-.254.052-.052.052-.104.104-.104s.104-.052.152-.103c0-.052-.052-.104-.152-.152.104 0 .152-.052.104-.052-.052-.052-.152 0-.152-.052 0 0 .052-.052.104-.052 0-.052.052-.052.052 0l.304.152c.052 0 .103 0 .052.052 0 .052.052.104 0 .104m.202-.203c-.152 0-.202-.152-.152-.253.052.052.253.104.355.152-.152.052-.104.104-.203.104m7.316-2.906.052-.052c.052 0 .104-.104.104-.253-.104.104-.304.203-.304 0 0 0 0-.104-.202-.104-.304.052-.61 0-1.168-.052-.052 0-.052-.052 0-.052.558-.052 1.674-.152 1.674-.508 0-.303-.354-.507-1.37-.507-1.014 0-4.21.356-4.21-.203 0-.356 1.065-.253 1.877-.202 0 .051.104.103.202.151 1.32.356 2.841-.609 3.602-.405-1.014-.354-1.674.254-2.688.052.609 0 1.216-.104 1.268-.253-.457.304-1.724-.203-2.282.152-.052 0-.052 0-.104.052-.964 0-2.13-.104-2.13.457 0 1.014 3.55.405 4.413.405.862 0 1.064.104 1.064.253 0 .254-.862.304-1.319.304-.811 0-4.16-.457-5.478 0 .052-.253.405-.609.202-.76.152-.053.254-.153.254-.254-.104-.104-.152-.152-.254-.152 0-.052-.051-.104-.051-.152-.052 0-.052-.152-.104-.202-.052-.052-.152-.104-.304-.203-.152-.052-.253-.052-.304-.052 0-.052-.152 0-.152 0-.104 0-.203 0-.203.104-.052-.104-.152-.104-.202-.104-.052.104-.104.203-.052.355-.104 0-.253.303-.356.253.052.104.052.152.104.152-.104.152-.152.405-.253.405.052.104.104.152.152.152v.304l-.203-.052h-.152c-.052-.052-.104-.052-.152-.052-.152 0-.304-.253-.558-.457-.203-.104-.203-.203-.203-.405 0-.203.052-.355.052-.508 0 0 0-.104-.052-.152 0-.104-.152-.203-.253-.152.052 0 .104.052.104.152l-.104.104c0 .052-.052.104 0 .152l.052.052c0 .052 0 .052-.052.104-.052-.152-.104-.304-.203-.356h-.104c0-.152-.152-.254-.303-.104.051 0 .103.052.151.052-.051.052-.051.152-.051.152 0 .152.103.202.253.202.052 0 .052.052.052.052 0 .052 0 .052-.052.052-.203-.104-.304 0-.304.104v.052c-.104.104-.104.203.052.304 0-.052 0-.104.052-.152h.052l.052.052s.052 0 .104-.052h.104s0 .052.051.052v.052c-.152.152-.152.304.052.304.052.052.052.052.052.104 0 .253-.405.202-.354-.104-.253.356.152.609.405.405.052 0 .052 0 .052.052s.052.104.104.104c0-.052 0-.104.052-.104v.052c.052.104.052.202.152.202 0-.052 0-.103.052-.103s.253.405.66.609c-.053 0 .151-.104.253-.152 0 .104.051.152.103.202l.104-.052c-.052.203.203.405.152.405-.052 0-.457-.051-.609 0-.152.152-.66.304-.76.104-.053-.104-.053-.152-.105-.253-.052-.052-.104-.104-.152-.104h-.104a.306.306 0 0 0-.354-.052c.104.052.152.052.203.152l-.052.052c-.052.104 0 .203.304.304v.052c-.052 0-.104 0-.152-.052-.152-.052-.152-.203-.304-.104h-.104c-.152 0-.356.152-.253.304 0-.052.052-.104.152-.152 0 .052.052.104.052.104 0 .152.103.304.405.104 0-.052 0 0 0 0-.052.152-.254.253-.104.354l.052.052v.052c-.052.152.152.304.253.304-.052-.052-.104-.152-.104-.304.052.052.104.052.104.052.152-.052.104-.253.152-.304h.052c0 .104.052.254.202.254.203 0 .254-.152.254-.254.103 0 .103.104.103.152.052 0 .104-.052.152-.104 0 .052 0 .203-.103.304.103-.052.253-.104.303-.304.052.052.052.052.052.104.104 0 .203 0 .355-.052.052 0 .052.052.052.052v.152s.052-.052.104-.052 0 .152.104.254c.051-.458.253-.254.558-.458.052 0 .052 0 .052.052-.052.052-.104.104-.152.104.104.104.508-.152.508-.356 0 0 .152-.052.304-.052.304 0 .253-.202.355-.202 1.674.202.71-.71 2.69-.508.103 0 .151-.152.202-.202-.104.202-.104.558.104.609.103 0 .303.052.355.152-.104.052-.253.052-.304.103-.303.203-.303-.455-.609-.354-.052.052-.103.052-.103.104-.152 0-.304.152-.254.253 0-.052.104-.104.203-.104v.052c0 .052 0 .104.104.104h.156c0 .152-.406-.052-.304.304 0 0 .052.052.052.104 0 .104.052.202.253.152-.052-.052-.104-.104-.104-.152h.104s.052 0 .052-.052c.052 0 .052 0 .052.052 0 0-.052 0-.052.052l.052.104c0 .152.152.253.304.152 0 0-.152-.052-.152-.104.052-.052.104-.052.104-.052v-.104c0-.052.052-.052.052-.052h.104c.051 0 .051 0 .051.052.052.052.152.104.254.052.202-.052.052-.253.202-.253.052 0 .104-.052.152 0 .152 0 .405 0 .457-.052.052-.104 0-.406-.152-.508-.103-.052 0-.203-.103-.355.151.104.354.152.609.152.507 0 .66-.052.862-.202.253-.104.508-.052.558-.052.052 0 .104.052.104.152-.104.202 0 .253-.052.355-.052.104-.253 0-.405 0-.052 0-.152.052-.152.052-.104.052-.253.152-.253.254.052 0 .104-.052.202-.104v.052c0 .202.203.253.304.152 0-.052.052 0 0 0-.052.104-.253.253-.104.304 0 0 .052 0 .052.051 0 .104.052.203.152.203-.052-.052-.052-.104 0-.203h.104c.104 0 .052-.202.203-.253-.052.104-.052.253.052.304h.052c.052.104.152.152.304.104-.052-.052-.104-.052-.152-.104l.104-.104c.103-.253-.104-.253-.104-.354 0-.152.253-.052.253-.304 0-.052 0-.104-.104-.152.104 0 .152 0 .203-.104-.203 0-.104-.152-.152-.253m-7.356-1.928c.052.104.304.152.405.203-.202.052-.152.104-.253.104-.152 0-.152-.152-.152-.304m-.253-.104c-.052.104-.152.202-.253.104-.104-.104 0-.104-.104-.304.104.052.304.202.354.202m-.354.812c0-.052.052-.104.104-.104s.104 0 .104-.104c.051-.052 0-.104-.104-.152.104 0 .104-.052.104-.104-.104 0-.152.052-.152 0-.052 0 .052-.052.052-.052.052-.052.052-.052.104 0l.303.104c.052.052.104.052.104.104s0 .104-.052.104c0 0 0-.104-.052-.104s-.052.052-.052.104c-.052 0-.152-.052-.152.052-.052.052-.052.104 0 .152v.152c-.052.104-.151.152-.253.104-.104-.052-.104-.152-.052-.253m-.304-.458zM96.485 54.837c0-.304-.304-.507-1.319-.507-1.064 0-4.21.354-4.21-.203 0-.355 1.065-.203 1.877-.203 0 .052.104.104.202.152 1.32.355 2.689-.507 3.653-.202-.761-.66-1.725.052-2.689-.152.559 0 1.168-.104 1.217-.253-.456.303-1.725-.203-2.283.103l-.104.104c-.963 0-2.13-.152-2.13.456 0 1.014 3.55.405 4.413.405.863 0 1.065.104 1.065.254 0 .253-.862.303-1.37.303-.76 0-4.108-.455-5.478-.051.104-.203.405-.559.253-.71.152-.053.253-.153.253-.254-.104-.104-.202-.104-.253-.152.052-.052-.052-.104-.104-.152 0 0 0-.152-.052-.203-.052-.051-.152-.103-.304-.202-.152-.052-.253-.052-.303-.052-.052-.052-.152 0-.152 0-.104 0-.203 0-.203.104a.385.385 0 0 0-.203-.104c-.103.104-.103.203-.051.356-.152 0-.254.304-.355.253 0 .104.052.152.104.152-.104.203-.152.405-.253.405.052.052.052.104.104.104 0 .104-.052.253-.052.355l-.104-.052h-.152c-.052-.052-.104-.052-.152-.052-.203 0-.304-.304-.559-.456-.202-.104-.202-.203-.202-.405 0-.152.052-.356.052-.508 0 0-.052-.104-.052-.152-.052-.104-.203-.203-.253-.203.051.052.103.104.103.203l-.103.104c-.052.052-.052.104.051.152v.156c-.051.052-.051 0-.051 0-.052-.152-.104-.304-.203-.355h-.104c0-.152-.152-.253-.304-.104.052.052.104.052.152.052-.052.052-.052.152-.052.152 0 .152.104.203.253.203 0 .052.052.052.052.052 0 .052 0 .052-.052.052-.202-.104-.303 0-.303.103v.104c-.104.052-.104.152.052.254 0-.052-.052-.152.051-.152.052 0 .104.052.104.052s.052 0 .104-.052h.052c.052 0 .052.052.104.052v.052c-.152.151-.152.303.052.303l.052.052c-.052.304-.405.254-.405-.052-.203.355.202.61.456.456.052-.052.052-.052.052 0s.051.104.103.104c0-.052 0-.052.052-.052 0-.052 0 0 0 0 0 .104.052.152.152.203 0-.052 0-.152.052-.152s.254.405.66.66c.104-.052.203-.052.253-.152 0 .052 0 .103.052.103.052.203.152.458.104.458-.052 0-.71-.052-.812.052-.202.103-.66.253-.811.052-.052-.052-.052-.104-.104-.203-.052-.104-.104-.152-.152-.152h-.104a.306.306 0 0 0-.355-.052c.104 0 .152.052.203.152l-.052.052c-.052.104 0 .203.304.304-.052.052-.104.052-.152 0-.152-.104-.152-.203-.304-.152 0 .052-.052.052-.052.052h-.052c-.152 0-.356.152-.253.304 0 0 .052-.104.152-.152a.16.16 0 0 1 .052.104c0 .152.104.304.405.104 0-.052 0 0 0 0-.052.151-.253.253-.104.355l.052.052v.052c-.052.152.152.304.253.304-.052-.052-.104-.152-.104-.304a.161.161 0 0 0 .104.052c.152-.052.104-.253.152-.304h.052c0 .104.052.254.253.254.152 0 .254-.152.203-.254 0 0 0-.052.052 0 .052 0 .104.104.052.152.052 0 .104-.052.152-.104 0 .052.052.203-.104.304.104 0 .253-.104.304-.304.052.052.052.052.052.104h.052c.052 0 .152 0 .356-.052v.204c.052 0 .052-.052.103-.052.052 0 0 .152.104.254.052-.456.559-.203.863-.406 0 0 .052 0 0 0 0 .052-.052.152-.104.152.104.052.253-.052.354-.152 0 .052 0 .052-.052.052l.508-.202v-.152h.152c.304 0 .253-.253.355-.203 1.674.203.71-.71 2.688-.558.104.052.152 0 .203-.104-.104.202-.104.508.104.558.104 0 .304.052.354.152v.052c-.104 0-.253 0-.304.052-.304.203-.304-.457-.609-.356a.112.112 0 0 0-.104.104c-.152 0-.303.104-.253.253 0 0 .104-.103.203-.103v.051c-.052.052 0 .104.104.104h.152c0 .152-.406-.052-.304.304 0 0 0 .052.052.104 0 .104.052.203.253.152-.052-.052-.104-.104-.104-.152h.104l.052-.052s.052 0 .052.052c0 0-.052 0-.052.052l.052.104c0 .152.152.253.304.152 0 0-.152-.052-.152-.104.052 0 .104-.052.104-.052v-.104l.051-.052h.104c.052 0 .052 0 .052.052a.385.385 0 0 0 .254.104c.202-.104.052-.304.202-.304.052-.052.104-.052.152 0 .152 0 .405 0 .456-.052.052-.104 0-.405-.152-.508-.152-.051 0-.202-.104-.355.152.104.355.152.61.152.507 0 .608-.052.81-.152.254-.152.509-.104.56-.104.051 0 .103.052.103.152-.052.202.052.253-.052.354 0 .104-.253 0-.354 0-.104 0-.152.052-.152.052-.104.052-.254.152-.254.304a.385.385 0 0 1 .203-.104c.052.203.203.253.304.152.052-.052.104 0 .052 0-.104.052-.253.253-.104.304l.052.052c0 .104.104.203.152.203 0-.052 0-.104.052-.203h.052c.103 0 .052-.203.152-.253h.052c-.052.104-.052.253.051.304h.104c0 .103.104.152.254.103a.112.112 0 0 1-.104-.103c0-.052.052-.104.052-.104.103-.254-.152-.254-.152-.355 0-.152.253-.052.253-.304 0-.052 0-.152-.104-.152.052 0 .152 0 .152-.104-.152 0-.104-.151-.152-.253 0 0 0-.052.052-.052.052-.052.104-.104.052-.253-.052.104-.253.203-.253 0 0 0-.052-.104-.203-.104-.304.052-.558 0-1.115-.052.558-.052 1.623-.202 1.623-.558m-7.457-.863a.956.956 0 0 0 .405.152c-.203.052-.152.152-.253.152-.152 0-.152-.202-.152-.304m-.253-.103c-.052.103-.152.152-.254.052-.104-.052 0-.104-.104-.254.104.052.304.203.356.203m-.356.812c0-.052.052-.104.104-.104a.112.112 0 0 0 .104-.104c.052-.104 0-.104-.104-.152.104 0 .104-.052.104-.104-.052-.052-.152.052-.152 0-.052-.052 0-.052.052-.104s.052 0 .104 0l.304.152c.052.052.104.052.104.104s0 .104-.052.104c0 0 0-.104-.104-.104v.104c-.052 0-.152-.052-.152 0-.052.104-.052.152 0 .152v.202c-.052.052-.152.152-.253.104-.104-.052-.104-.202-.052-.253m8.541-4.585c0-.355-.405-.559-1.47-.559-1.066 0-3.45.405-3.45-.202 0-.304.457-.254 1.014-.203.052.052.104.052.253.104 1.37.405 2.993-.304 3.856-.104-1.015-.76-1.827.052-2.892-.202.61 0 .862-.152.862-.304-.457.304-1.37-.203-1.927.152-.052.052-.104.052-.104.103-.761-.051-1.37-.051-1.37.458 0 1.064 2.84.455 3.754.455.913 0 1.116.104 1.116.254 0 .253-.913.355-1.42.355-.762 0-3.146-.457-4.566-.151.103-.254.354-.508.253-.71.104-.053.202-.153.202-.254a.385.385 0 0 0-.253-.104c.052-.104 0-.152-.104-.203 0-.051 0-.151-.052-.202a.775.775 0 0 0-.304-.203c-.152-.104-.253-.104-.355-.104l-.152.052c-.104-.052-.152-.052-.203.052a.385.385 0 0 0-.253-.104c-.052.152-.052.203 0 .406-.152 0-.304.303-.405.303l.103.104c-.103.203-.151.457-.253.457.052.104.152.152.152.152v.406l-.253-.104h-.104.052l-.104-.052c-.152-.104-.304-.304-.457-.405-.253-.104-.253-.203-.203-.458 0-.151.104-.354.104-.507-.052-.052-.052-.104-.052-.152-.052-.152-.202-.253-.304-.203.052.052.104.052.104.203 0 0-.052.052-.052.104-.051.052-.103.104 0 .152v.052s0 .051-.051.103c-.052-.152-.104-.354-.203-.354h-.104c0-.152-.152-.253-.304-.104.052 0 .104 0 .152.052-.052.052-.052.152-.052.152-.052.152.052.152.203.202h.052v.052c.052.052 0 .052 0 .052-.254-.152-.356 0-.356.104v.104c-.104.052-.104.203.052.304 0-.052 0-.152.052-.152 0 0 0-.052.052-.052 0 .052.052.052.052.052 0 .052.051 0 .151 0 0-.052 0-.052.052 0h.052c.052.052.052.052 0 .052-.152.203-.152.355.052.355.052 0 .052.052.052.052-.052.303-.457.253-.405-.052-.203.354.152.609.457.457 0-.052 0 0 .052 0 0 .052 0 .104.052.104 0 0 .052-.052.104-.052 0 .104.052.202.152.202-.052-.052 0-.104.052-.104s.152.203.405.356c.202.104.354.304.456.203 0 .202.202.405.152.405-.052 0-.61 0-.761.052-.203.104-.71.304-.863.104-.052-.104 0-.152-.104-.253 0-.104-.103-.152-.151-.152h-.104a.308.308 0 0 0-.356-.052c.052.052.152.052.202.152 0 .052-.052.103-.052.103-.051.052 0 .152.304.254 0 0 .052.052 0 .052-.052.052-.104.052-.152 0-.152-.104-.152-.254-.303-.152 0 0-.052.052-.104.052-.152-.052-.355.152-.304.304.052-.052.104-.104.202-.152 0 .052 0 .104.052.104 0 .151.052.303.406.103.052-.052.052 0 0 0-.052.152-.254.254-.104.355 0 0 .052.052.052.104-.052.202.151.356.253.304 0-.052-.104-.104-.052-.254h.052c.152-.051.104-.253.202-.303h.052c0 .103 0 .303.203.253.203 0 .253-.152.253-.253.104 0 .152.103.104.202l.152-.152c.052.104.052.203-.052.304.052 0 .253-.104.253-.304l.104.104c.052 0 .203.052.355 0 .052-.052.052 0 .052 0v.203c0-.052.052-.104.104-.104s0 .202.104.304c.051-.508.303-.304.609-.508.052 0 .052 0 0 .052 0 .052-.052.104-.104.152.304.052.862-.456.913-.66.152 0 .253-.052.304 0 .963.052.303-.862 1.826-.609.104 0 .253-.104.354-.152-.104.203-.104.61.104.66.104 0 .253.052.355.152h-.052c-.104.052-.203.052-.253.104-.355.202-.355-.508-.66-.355-.052 0-.104.052-.104.052-.152 0-.356.152-.304.304.052-.052.104-.104.203-.104v.052c0 .052.052.104.152.104h.155c0 .152-.405-.052-.354.304l.104.104c-.052.104.052.202.253.152a.112.112 0 0 1-.104-.104h.104s.052 0 .052-.104c0 0 .052 0 .052.052 0 0-.052.052-.052.104 0 0 .052.052.052.104 0 .103.152.253.354.103-.051 0-.151 0-.202-.103h.104c.052-.052.052-.104.052-.152h.104c.052-.052.052 0 .104 0 0 .104.103.152.253.104.202-.052.052-.254.202-.304.052 0 .104-.052.152 0 .152.052.457 0 .508-.052.052-.104 0-.405-.203-.508-.103-.104 0-.203-.103-.356.202.052.405.152.71.152.456 0 .609-.104.812-.253.253-.104.507-.052.609-.052.052.052.104.052.104.152-.052.253 0 .253-.052.405-.052.104-.254 0-.406 0-.104 0-.152.052-.152.052-.103.052-.253.152-.253.304a.684.684 0 0 1 .203-.152v.052c.052.202.253.253.356.152 0-.052.051 0 0 0-.052.104-.254.253-.104.304 0 0 .052.052.104.052-.052.103.051.202.152.253-.052-.052-.052-.104 0-.203h.103c.104 0 .052-.253.152-.304h.052c-.052.152-.104.304.052.304l.052.052c.052.104.152.152.304.104 0-.052-.104-.104-.104-.152 0 0 .052-.052.052-.104.104-.253-.152-.253-.152-.354 0-.152.253-.052.253-.304 0-.052 0-.152-.104-.203.104 0 .152 0 .203-.104-.203.052-.152-.104-.152-.253v-.052c.052 0 .104-.104.104-.253-.104.104-.304.203-.355 0 0 0 0-.104-.151-.104-.355.052-.559 0-1.167-.104.66 0 1.725-.152 1.725-.558m-6.696-.913a.957.957 0 0 0 .405.152c-.202.052-.152.104-.253.104-.104 0-.152-.152-.152-.253m-.253-.152c-.052.103-.152.202-.253.103-.104-.103 0-.151-.152-.303.152.103.355.202.405.202m-.405.862c.052-.051.052-.103.103-.103.104 0 .104-.052.152-.104 0-.052-.051-.104-.152-.152.104-.052.152-.104.104-.104-.052-.052-.104 0-.152 0 0-.052.052-.104.104-.104 0-.052.052 0 .104 0l.304.152c.052 0 .104.052.104.104s0 .104-.052.104-.052-.104-.104-.104-.052.052 0 .104c-.104 0-.152-.052-.202.052-.052.052 0 .104.052.152 0 0 0 .103-.052.152 0 .103-.104.202-.254.151-.104-.103-.104-.202-.052-.303m.863 1.876zm4.94-5.81c1.064 0 1.623-.355 1.623-.71 0-1.168-2.993-.458-2.993-1.168 0-.152.104-.253.202-.355h.052c1.522-.104 1.522-1.166 2.638-1.37-1.319-.202-1.522.812-2.08.863.304-.152.405-.508.405-.61-.253.357-.862.406-1.166.813-.052.052-.104.151-.052.202-.202.104-.354.253-.354.456 0 1.116 3.094.356 3.094 1.167 0 .304-.558.508-1.37.508-.66 0-1.115-.457-2.282-.152 0-.202.405-.558.253-.76.104-.053.203-.153.203-.203-.052-.104-.152-.104-.254-.104.052-.052 0-.152-.052-.203 0 0 0-.104-.052-.152a1.006 1.006 0 0 0-.253-.152c-.152-.104-.253-.104-.304-.104l-.152.052c-.051-.052-.152-.052-.152.052a.385.385 0 0 0-.202-.104c-.052.104-.104.203-.052.304-.104.052-.203.304-.304.304.052.052.052.104.104.104-.104.152-.152.356-.253.356.052.052.052.104.104.104a2.17 2.17 0 0 0-.152.71h-.052a.4.4 0 0 0-.203-.203c-.202-.104-.202-.202-.152-.354.052-.152.152-.304.152-.457l-.052-.104c0-.104-.152-.203-.202-.152 0 0 .052.052.052.152-.052 0-.052.052-.104.052 0 .052-.052.104 0 .152v.104c-.052.052-.052 0-.052 0 0-.104-.052-.254-.152-.254h-.052v-.052c0-.104-.104-.202-.304-.052.052 0 .104 0 .104.052l-.052.104c0 .104.104.152.203.152h.051v.104c-.202-.104-.303 0-.354.104v.052c-.104.052-.104.152 0 .253 0-.052 0-.104.104-.152 0 .052.052.052.052.052s.052 0 .152-.052h.052c0 .052.052.052.052.052v.052c-.152.104-.152.253.052.304-.052.253-.406.203-.356-.052-.254.304.052.508.356.355h.051c0 .103 0 .103.052.103 0 0 .052-.051.104-.051v.051c0 .052 0 .152.104.152 0-.052 0-.103.052-.103s.104.202.253.354c-.202.152-.609.253-.66.253-.051 0-.405-.052-.507 0-.203.104-.61.254-.761.052-.052-.052 0-.104-.052-.202-.052-.052-.104-.104-.152-.104h-.104c-.052-.052-.253-.104-.304-.052.052.052.152.052.203.104-.052.052-.052.104-.052.104-.052.052 0 .152.253.253v.052c-.052 0-.104 0-.152-.052-.104-.052-.104-.203-.253-.104 0 0-.052 0-.104.052-.104-.052-.304.104-.203.253 0-.052.052-.104.104-.152a.16.16 0 0 1 .052.104c0 .152.104.253.355.052.052 0 .052.052.052.052-.104.104-.254.203-.104.304 0 0 0 .052.052.052v.052c-.052.152.104.253.202.253-.052-.052-.104-.104-.104-.253.052 0 .104.052.104.052.152-.052.052-.254.152-.304l.052.052c0 .052.052.202.203.202.152-.052.202-.152.202-.253.052.052.104.104.104.152 0 0 .104-.052.104-.104.052.052.052.203-.052.253.052 0 .203-.052.253-.253 0 .052.052.052.052.104.052 0 .152 0 .355-.052v.204s.052-.104.104-.104c0 0 0 .203.052.304.052-.405.304-.253.508-.457.051 0 .051 0 .051.052 0 0-.051.104-.103.104.103 0 .303-.104.303-.203 0-.052.104-.104.152-.152.104 0 .254-.052.304-.152 0 .052.052.203 0 .203.254.052.559-.304.66-.304.558-.104-.355-.558.812-.456a.554.554 0 0 0 .355-.152c-.103.203-.103.559.052.559.104 0 .254.104.304.152-.104.051-.202.051-.253.103-.304.152-.304-.405-.558-.303 0 0-.052.052-.104.052-.104 0-.254.151-.254.253.052-.052.104-.104.203-.104v.052c0 .052 0 .104.104.104h.156c0 .104-.355-.052-.304.253 0 0 .052.052.052.104s.104.152.253.104a.112.112 0 0 1-.104-.104h.104v-.052h.052v.208c0 .104.152.202.355.104a.376.376 0 0 1-.203-.104h.104c.052-.052.052-.104.052-.104v-.052h.156c0 .104.104.152.202.104.203-.052.052-.203.203-.254h.104c.152.052.405.052.457-.051 0-.052 0-.355-.152-.456-.104-.052 0-.152-.104-.304.152.104.356.152.558.152.458 0 .052-.052.254-.203.152-.104.405-.052.507-.052.052.052.104.052.052.104-.052.253.052.253 0 .355-.052.104-.253 0-.354 0-.104 0-.152.052-.152.052-.104.052-.203.152-.203.253 0 0 .104-.052.203-.104v.052c0 .152.152.202.253.104 0 0 .052 0 .052.052-.104.052-.253.152-.104.253h.052c0 .104.052.203.152.203-.052-.052-.052-.052 0-.152h.052c.104 0 .052-.203.152-.254h.052c-.052.104-.052.254.052.254 0 0 0 .052.052.052.052.052.104.151.253.052 0 0-.104-.052-.104-.104.052 0 .052-.052.052-.052.104-.254-.104-.254-.104-.355 0-.104.203 0 .203-.253 0-.052 0-.104-.104-.152.052 0 .152 0 .152-.052-.152 0-.104-.152-.104-.253v-.052c.052 0 .104-.104.052-.203-.052.052-.253.152-.253 0 0 0 0-.104-.152-.104-.304.052-.456-.104-.964-.152-.052 0-.052-.052 0-.052m-3.348-1.216h-.052.052m.812-.203c0 .052.202.152.304.152-.152.052-.104.104-.203.104-.104 0-.152-.152-.104-.253m-.253-.104c-.052.104-.152.152-.203.052-.104-.052 0-.104-.104-.254.104.104.254.203.304.203m-.354.71.104-.103c.052 0 .104 0 .104-.052.052-.104 0-.104-.052-.152.052 0 .052-.052.052-.104-.052 0-.104.052-.152 0 0 0 .052-.052.104-.052 0-.052.051-.052.051 0l.304.152c.052 0 .052 0 .052.052s.052.052 0 .104c-.052 0-.052-.104-.104-.104-.051 0-.051.052 0 .104-.103-.052-.151-.052-.151 0-.052.052-.052.103 0 .151.052.052 0 .104 0 .152-.052.052-.104.152-.203.104-.152-.052-.104-.152-.104-.253m4.075 17.116h-.253v-.253c.052-.913-.508-1.573-1.471-1.573-.862 0-2.536 1.116-4.87 1.116-.964 0-2.181-.457-2.892-.913l-.303.71v-.104a.563.563 0 0 0-.559-.558c-.304 0-.609.253-.609.558 0 .356.304.61.61.61.151 0 .354-.105.455-.203l-.304.66c.104.051.203.103.304.151-.355 3.551 2.283 8.015 6.9 9.436.659-.203 1.369-.104 1.369.66 0 .455-.203.66-.66.66-.253 0-.405-.153-.405-.357 0-.303.508-.152.558-.354.104-.253-.104-.405-.405-.405-.304 0-.812.202-.812.76 0 .66.508 1.015 1.065 1.015.508 0 1.573-.304 1.42-1.573.254.052.56 0 .61-.253l.052-.71-.253-.052.202-8.117.152.052c.304 0 .558-.152.61-.457 0-.354-.254-.457-.509-.508m-8.37.66 5.631 8.066c-2.993-1.166-5.986-3.856-5.63-8.066m5.833 7.305-5.174-7.356h.507c.254 0 .508-.052.761-.052l4.11 5.885c-.053.558-.153 1.065-.203 1.522m.354-2.334-3.601-5.225c.405-.052.76-.203 1.115-.304l2.74 3.855c-.105.559-.153 1.116-.254 1.675m.862-5.733h-.202c-.253 0-.559.104-.559.405-.052.304.203.508.508.559h.152c-.052.052-.052.104-.052.202-.052.456-.202 1.217-.304 2.08l-2.333-3.246c1.115-.456 1.978-.913 2.435-.913.354 0 .456.152.354.913m14-8.368c.203-.104.356-.202.406-.354-.203.052-.355-.052-.406-.052.104-.104.304 0 .104-.304-.152-.253-.253-.253-.457-.052-.152.152-1.37-.104-1.37-.964.104.152.254.254.406.355.052 0 .104 0 .152.052.052 0 .104 0 .152.052.103 0 .253.052.354.052h.052v-.052c.253-.052.457-.203.457-.457.052-.508-.405-.71-.913-1.166-.202-.152-.354-.304-.507-.458-.152-.354-.052-.66-.508-1.318 0-.152-.052-.304-.152-.559-.203.405-.304 1.217.304 1.928.507.508 1.572 1.065 1.521 1.522 0 .103-.103.202-.253.253-.052-.052-.104-.052-.152-.052h-.104c-.104-.052-.152-.052-.253-.104-.104-.104-.202-.152-.354-.304-.458-.405-.863-1.014-1.116-1.37-.508-.609-.253-1.216-.203-1.775.356-.456-.202-1.42-.507-1.674 0 0 .052-.253-.052-.508-.052.052-.203.052-.304.052-.052-.202-.104-.253-.253-.253-.203-.052-.203-.152-.203-.253-.152.104-.152.202-.304.253-.202 0-.253-.052-.304.052-.152.104-.202.104-.405.104-.202 0-.152.152-.152.253 0 .104 0 .253.152.304h.052l.152.202.104-.202c.104-.052.356-.104.405.104.052.152.052.152-.104.202h-.405c-.152 0-.152.152-.152.254.052.103.152.202.405.103.253-.051.66-.103.66.104 0 .559-.61.559-.761 1.167-.152-.104-.304-.203-.355-.355a3.867 3.867 0 0 0-.457-.558c-.152-.104-.304-.254-.457-.355-.202-.152-.253-.253-.253-.457 0-.203.104-.355.104-.558 0 0-.052-.104-.052-.152-.052-.104-.203-.203-.304-.203a.684.684 0 0 1 .152.203l-.104.103c-.052.052-.052.152 0 .203v.104c0 .052 0 .052 0 0-.052-.104-.104-.304-.253-.304h-.104v-.052c0-.152-.152-.253-.304-.104.052.052.104.052.152.104-.052.052-.052.104-.052.104 0 .152.104.203.253.203 0 0 .052 0 .052.052v.052c-.253-.104-.356 0-.356.151v.104c-.104.052-.104.152.052.254 0-.052 0-.104.052-.152h.052c0 .052.052.052.052.052s.052 0 .104-.052h.104c0 .052.052.052.052.052.052 0 .052.052 0 .052-.152.152-.104.303.052.354-.052.152-.356.104-.356-.152-.203.304.152.559.457.405 0 .152 0 .406.052.406-.052-.052 0-.104.052-.104v.052c0 .103.052.152.152.202 0-.052 0-.104.052-.104.052.052.104.152.152.203.104.253.405.913 1.065 1.167-.356.203-.559.456-.761.71-.203.203-.456.357-.61.254-.103-.052-.103-.104-.202-.152-.052-.052-.152-.104-.203-.052 0 0-.051 0-.103.052-.104-.052-.254 0-.304.052.052 0 .104 0 .202.052v.152c0 .052.052.152.405.104 0 0 .052 0 0 .052 0 .052-.051.052-.152.052-.151-.052-.202-.152-.354-.052 0 .052 0 .104-.052.104h-.052c-.104.052-.253.303-.052.405 0-.052 0-.152.052-.203l.104.104c.104.104.203.203.405-.152 0 0 .052 0 .052.052-.052.152-.202.356 0 .405h.104v.052c.052.152.304.203.405.152-.104 0-.202-.104-.253-.202h.104c.152-.152 0-.304.052-.355 0-.052.052-.052.052 0 .052.052.152.203.304.104.104-.052.104-.104.152-.203.202-.104.405-.152.558-.104 0-.152.104-.303.355-.354.202-.052.354 0 .405.104.052-.152.104-.304.253-.456-.052.964 1.217.964 1.522 1.522-.405-.203-.812-.254-1.014-.203-.304.052-.863.304-.964.66-.052.304.253.811.558 1.014-.354.104-.455-.052-.811.052h-.052c-.253 0-.304-.456-.66-.355 0 0-.052.052-.104.052-.104 0-.304.152-.253.304 0-.052.104-.104.203-.104v.052c0 .052 0 .104.104.104h.152s.052 0 .052.052c0 .104-.458-.104-.356.253l.052.104c0 .104.103.254.253.152 0 0-.104-.052-.052-.104h.052c.052 0 .052 0 .052-.052s0-.052.052-.052v.26c0 .104.202.253.405.104-.052 0-.203 0-.203-.052s.104-.052.104-.052v-.152h.052c.052 0 .052 0 .104-.052.052 0 .052.052.052.052.052.104.152.152.253.104.104 0 .104-.052.152-.104.052.052.052.104.104.104 0-.104.104-.253.405-.052l.203-.152s.253.104.356 0c.202-.152.104-.152.104-.304-.152-.303-.203-.253-.254-.558-.104-.457.559-.71.913-.66.104.304.508 1.116 1.166 1.32.458.151.61-.305.761-.254.052 0 .052.052.104.152-.052.203 0 .405-.052.508-.052.104-.304 0-.455 0-.052 0-.152.052-.152.052-.152.052-.304.152-.304.304a.385.385 0 0 1 .253-.104l.052.052c0 .202.202.253.304.104 0 0 .052 0 .052.051-.104.052-.304.254-.152.304 0 0 .052.052.104.052 0 .104.103.254.202.254-.052-.104-.052-.104 0-.254h.104c.104 0 .052-.202.152-.253.052-.052.052 0 .052 0-.052.104-.052.253.052.304 0 0 .052 0 .104.052 0 .104.152.152.304.052 0 0-.104-.052-.152-.104l.104-.104c.104-.253-.152-.253-.152-.405 0-.152.253-.052.253-.304v-.052c.152-.104.304-.152.304-.253-.203 0-.356-.052-.356-.104zm2.638 1.624c.254.152.152.609-.152.558a17.61 17.61 0 0 0-2.891-7.61c0-.051 0-.051.052-.051a.979.979 0 0 0 .609-.812c-.457-.052-.761.152-.964.456-.104-.152-.202-.304-.304-.456a14.369 14.369 0 0 0-3.297-3.044 12.238 12.238 0 0 0-3.602-1.674c0-.253.405-.303.559-.051.052-.508-.356-.71-.61-.61-.103.052-.253.152-.253.355-.152-.203-.354-.304-.71-.355 0 .304.104.559.203.71-.203 0-.304.105-.355.203-.152.203 0 .66.508.71-.253-.202-.152-.558.152-.558v5.885c-.304-.104-.66-.052-.964.253.304.304.66.356.964.253v6.392c-.304 0-.405-.354-.152-.558-.457 0-.66.405-.559.66.052.151.203.253.458.253-.152.152-.254.354-.254.66.304 0 .508-.105.66-.254 0 .253.104.405.253.456.254.104.66-.052.66-.559-.152.254-.558.152-.558-.103h4.46c-.104.253-.052.66.253.963.304-.304.304-.71.253-.963h4.921c0 .303-.356.354-.558.152.052.457.457.66.66.558.151-.104.303-.253.253-.508a.964.964 0 0 0 .66.253c0-.303-.105-.507-.254-.71a.451.451 0 0 0 .508-.203c.052-.253-.152-.66-.61-.66m-4.26-7.76c-.152.103-.203.303-.152.405a.46.46 0 0 0 .455.303c-.151.152-.303.356-.354.61.304.051.508 0 .71-.152-.052.253 0 .405.152.507.104.104.253.104.405 0 1.116 1.877 1.928 3.957 2.233 6.139a.804.804 0 0 0-.559-.203c.052.356.152.558.304.71h-3.754c.052-.253-.104-.456-.253-.507-.152-.052-.304 0-.508.202a.918.918 0 0 0-.253-.66c-.203.203-.304.458-.304.66-.203-.202-.355-.253-.508-.202-.152.051-.253.253-.253.507h-3.196c.104-.152.203-.354.203-.609a1.11 1.11 0 0 0-.61.203v-5.175c.203 0 .457-.103.508-.253.052-.152 0-.354-.202-.508.202 0 .457-.103.66-.303-.203-.203-.456-.254-.66-.304.202-.152.253-.356.202-.508-.051-.152-.303-.253-.507-.253v-4.363a.767.767 0 0 0 .507.203.772.772 0 0 0-.103-.61c.963.304 1.927.812 2.84 1.421 1.116.71 2.13 1.623 2.993 2.74m14.056 9.595c-.558-.405-1.42-1.217-1.877-2.181-.559-1.167-2.942-5.885-3.297-6.494-.304-.558-.458-1.014-.458-1.42 0-.508.203-.913.508-1.268.152-.202.66-.71.863-1.014.151-.253.303-.405.457-.558-.863-1.522-1.776-2.638-2.943-3.957-1.37-1.573-2.942-2.942-4.667-4.008.913-.609 1.877-1.47 1.877-2.891 0-.862-.354-1.522-.963-2.08.963-3.094 2.688-6.797 4.16-8.42l-3.095-1.32c.812 1.27.862 2.689.66 3.5-.812-.558-1.471-1.318-1.725-2.333-.152.964-.66 2.486-1.116 3.348.863-.405 1.624-.609 2.486-.202-.508.71-1.826 1.775-3.855 1.268-1.116-.253-2.232-.811-2.181-1.674.051-.507.405-1.115 1.115-1.065.66.052.71 1.116.508 1.573.862-.508 1.775-3.094.405-3.5-1.065-.304-2.08 1.217-2.435 2.333-.202-1.37-.76-2.688-1.877-2.638-1.42.104-.963 2.74-.457 3.4.052-.914.558-1.421 1.014-1.37.356.052.863.303.761 1.115-.052.862-1.268 1.37-2.638 1.37-1.319 0-3.601-.405-3.804-2.942.862.152 2.181.811 2.74 1.674-.153-1.522-.203-2.638 0-4.21-.711 1.013-1.878 1.52-2.69 1.673.203-1.115 1.167-2.232 2.233-2.942h-5.631c1.115.71 2.029 1.826 2.282 2.891-.862-.103-1.978-.66-2.688-1.623.202 1.573.202 2.689 0 4.21.558-.862 1.877-1.47 2.688-1.623-.202 2.486-2.485 2.892-3.804 2.892-1.37 0-2.537-.508-2.638-1.37-.104-.812.405-1.065.761-1.115.457-.052.964.455 1.014 1.37.508-.66.964-3.298-.457-3.4-1.065-.052-1.674 1.268-1.877 2.638-.354-1.115-1.319-2.638-2.435-2.333-1.37.405-.457 2.993.405 3.5-.202-.456-.152-1.522.508-1.573.71-.052 1.065.559 1.116 1.065.052.863-1.065 1.42-2.13 1.674-2.03.508-3.349-.558-3.907-1.268.913-.406 1.674-.203 2.537.202-.458-.862-.964-2.384-1.116-3.348-.253 1.014-.964 1.826-1.776 2.384-.151-.862-.103-2.282.66-3.55l-3.043 1.318c1.42 1.624 3.195 5.378 4.16 8.472-.61.508-.914 1.166-.914 2.029 0 1.42.863 2.283 1.826 2.891-1.724 1.065-3.297 2.435-4.666 4.008-2.131 2.384-3.805 5.174-4.972 8.269.456.405 2.283 2.435 2.74 2.993.76.963 1.216 1.927 1.268 2.688 0 1.42.304 1.979 1.065 2.892.203.304.558 1.42.61 2.08h15.37v16.74c-.61 0-1.269.203-1.776.812 1.776.71 3.45 1.37 5.175 1.877.151-1.065.354-1.776.912-2.435 0 0-2.231-.203-3.398-.304v-16.69h15.015c-.104 2.283-.508 4.515-1.267 6.646a18.444 18.444 0 0 1-3.348 5.833c-1.42 1.674-3.145 2.993-4.972 3.957-.304.152-.304.356-.609.457-.253.304-.508.812-.76 1.37-.153.508-.254.862-.305 1.522.66.202 1.065.354 1.725.508 5.276 1.318 6.595.913 6.9.71v-.052c1.165-.913 2.282-1.928 3.296-3.094 2.131-2.385 3.805-5.175 4.972-8.27a29.878 29.878 0 0 0 1.775-10.145c0-.66.052-.862 0-1.47M98.21 58.44H82.79c.052-2.385.457-4.667 1.269-6.849.76-2.181 1.927-4.16 3.348-5.884a15.846 15.846 0 0 1 4.971-3.906c1.877-.913 3.805-1.42 5.834-1.42zm.253-25.618c-5.123 0-8.674 1.522-10.703 2.891-1.217-.71-1.725-1.37-1.725-2.181 0-2.942 8.269-3.196 12.428-3.196 4.16 0 12.429.253 12.429 3.196 0 .812-.508 1.471-1.725 2.181-2.029-1.37-5.58-2.891-10.704-2.891m.66 25.618V40.38c1.877.104 3.703.559 5.428 1.42a15.842 15.842 0 0 1 4.971 3.907c1.42 1.725 2.588 3.703 3.349 5.884.811 2.182 1.216 4.464 1.267 6.849zm51.337 37.386c-.052-.203-.304-.304-.508-.254-4.819 1.42-10.805-2.587-16.588-6.442-4.87-3.196-9.435-6.29-13.392-6.29-1.471 0-2.74.303-3.856.912-1.37.761-2.384 1.979-3.043 3.551a24.338 24.338 0 0 1-1.928 3.602c-.71 1.065-1.166 1.826-1.166 2.79 0 .761.354 1.471 1.014 2.13.558.56 1.319 1.116 2.486 1.726.253.152.507.253.76.355.964.508 1.573.812 1.675 1.32-1.928.862-4.363 1.572-7.204 2.028-3.145.559-6.594.863-10.247.863-3.652 0-7.153-.304-10.298-.863-2.79-.457-5.275-1.166-7.203-2.029.104-.811.71-1.115 1.725-1.623.253-.104.507-.203.76-.355.964-.507 1.878-1.014 2.486-1.521.66-.61.964-1.27.964-2.03 0-.963-.457-1.724-1.116-2.79-.558-.862-1.268-1.978-1.927-3.601-.66-1.573-1.674-2.79-3.095-3.551-1.065-.61-2.384-.913-3.804-.913-3.957 0-8.573 3.094-13.443 6.29-5.783 3.855-11.719 7.863-16.538 6.443-.253-.052-.457.051-.558.303-.052.203.052.456.253.508 1.471.66 2.74 1.674 4.008 2.638 1.725 1.37 3.348 2.638 5.174 2.638 1.725 0 3.551-.508 5.783-1.674 1.928-1.065 3.957-2.435 5.885-3.754 3.804-2.587 7.761-5.276 11.464-5.58-.354.405-.76.76-1.115 1.065-1.116.963-2.03 1.826-2.03 3.55 0 1.37.458 2.334 1.116 3.704.152.405.405.811.609 1.319.405.913.558 1.674.812 2.688.152.457.253.913.405 1.522.253.862.66 2.537 3.399 3.906 3.195 1.624 8.674 2.435 16.283 2.435 7.61 0 13.088-.811 16.233-2.435 2.74-1.37 3.196-3.043 3.4-3.906.151-.609.303-1.065.404-1.522.254-1.014.406-1.775.863-2.688.304-.66.558-1.217.862-1.725.558-1.065 1.014-1.877 1.014-3.145 0-1.725-1.014-2.587-2.181-3.653-.355-.354-.761-.71-1.166-1.115 3.754.304 7.66 2.993 11.464 5.58 1.928 1.319 3.957 2.689 5.935 3.703 2.232 1.166 4.059 1.725 5.783 1.725 1.776 0 3.45-1.269 5.175-2.638 1.217-.963 2.536-1.978 4.007-2.638.203-.052.304-.304.203-.558m-48.291-4.922c-.254 0-.457.052-.66.104v-4.11c-1.826-.051-3.906-.354-6.037-.912v5.022a2.918 2.918 0 0 0-.71-.104c-1.471 0-2.334 1.217-2.334 2.334 0 1.064.61 2.029 1.167 2.637.253-.609.507-1.167.862-1.167.71 0 .405 3.602 2.485 3.703a1.783 1.783 0 0 0-.103.559c0 .913.71 1.623 1.623 1.623s1.623-.71 1.623-1.623c0-.203 0-.406-.104-.559 2.13-.104 1.776-3.703 2.486-3.703.355 0 .558.508.913 1.167.508-.609 1.115-1.572 1.115-2.637 0-1.116-.862-2.334-2.333-2.334m-3.703 8.979a.908.908 0 0 1-.913-.913c0-.508.405-.913.913-.913s.913.405.913.913a.908.908 0 0 1-.913.913m4.92-5.174c-.253-.508-.609-.761-.963-.761-1.37 0-.812 3.703-2.486 3.703-.76 0-1.166-.457-1.166-.964 0-.507.405-.66.405-1.115 0-.405-.354-.559-.71-.559-.355 0-.66.152-.66.559 0 .457.355.609.355 1.115 0 .508-.406.964-1.167.964-1.623 0-1.115-3.703-2.485-3.703-.304 0-.71.253-.913.76-.304-.558-.456-1.064-.456-1.47 0-.66.508-1.624 1.623-1.624 1.877 0 1.42 2.587 2.334 2.587.405 0 .71-.253.71-.66 0-.71-1.319-1.42-1.319-2.434 0-1.065.913-1.928 1.978-2.79 1.065.862 2.03 1.724 2.03 2.79 0 1.014-1.32 1.724-1.32 2.435 0 .405.254.66.66.66.913 0 .457-2.588 2.334-2.588 1.115 0 1.623.964 1.623 1.624 0 .405-.152.913-.405 1.47m.969-13.95c-3.45-.862-7.558-2.333-11.363-4.058v-.052c.104-.811-.203-1.674-.761-2.333-.61-.66-1.42-1.065-2.181-1.065-.355 0-.71.052-1.065.202-.559-.507-1.065-1.065-1.573-1.623a18.145 18.145 0 0 1-3.348-5.885 19.516 19.516 0 0 1-1.014-3.855c-.203 1.116-1.42 2.587-3.602 2.587.052-.202.052-.76-.152-.862-.558.66-1.42 1.319-3.399.66.304 1.522.761 2.993 1.27 4.464 1.165 3.094 2.84 5.884 4.97 8.268.66.812 1.42 1.522 2.182 2.182v.456c0 .811.76 2.08 1.877 2.638.913.455 1.928.354 2.79-.304a31.16 31.16 0 0 0 6.087 2.333c2.587.71 5.073 1.116 7 1.116 1.675 0 3.907-.761 6.088-2.131.863-.558 1.674-1.166 2.283-1.775.104-.052.203-.152.253-.203-1.674.253-4.261-.253-6.34-.761m-12.581-5.174-.406-.254c-.66-.507-1.216-.507-1.826 0-.253.254-.508.559-.76.812l-.406.456.253.202c.71.559.812 1.167.61 1.522-.053.152-.203.254-.355.304-.355.104-.812-.052-1.32-.354l-.303-.152-.152.253c-.052.052-.052.152-.104.203-.104.103-.152.152-.202.303-.304.508-.456.913-.456 1.217 0 .104 0 .203.052.254.104.405.405.609.66.71l.202.152c.304.152.761.457 1.065.609-.61.354-1.217.405-1.877.104-.913-.457-1.522-1.522-1.522-2.08 0-.812.356-1.826 1.014-2.892l.104-.152-.104-.202a3.85 3.85 0 0 1-.457-.913c.356.052.71.104 1.065.203l.152.051.152-.151c.405-.456 1.826-1.928 3.196-1.928.609 0 1.217.355 1.674.862.354.405.558.863.66 1.32l-.61-.457m2.182 6.544c-.812 0-1.471-.66-1.471-1.47a1.472 1.472 0 0 1 2.942 0c0 .81-.66 1.47-1.471 1.47m6.442 1.979c-.71 0-1.319-.61-1.319-1.37 0-.71.61-1.319 1.32-1.319.76 0 1.369.61 1.369 1.319 0 .761-.61 1.37-1.37 1.37m-.102-78.377c-.761-.609-1.37-1.47-1.471-2.435.913.152 1.877.812 2.485 1.573V1.116c-.609.76-1.572 1.42-2.485 1.573.103-.913.66-1.725 1.42-2.689h-3.653c.812.964 1.37 1.775 1.472 2.689-.913-.152-1.928-.812-2.486-1.573V4.87c.558-.761 1.573-1.42 2.486-1.573-.104.964-.71 1.827-1.522 2.435zm-5.225 4.566c.355 1.522 1.724 2.688 3.348 2.688 1.674 0 3.043-1.167 3.348-2.688zm4.058-1.37h2.689c-.254-1.37-1.32-2.486-2.689-2.74zm-1.37 0v-2.74a3.284 3.284 0 0 0-2.688 2.74zm2.537 5.174c-.356.203-.812.304-1.217.356v4.718h1.217zm-3.703 5.073h1.216v-4.667c-.457-.104-.862-.202-1.216-.405zm3.956-5.935c0 .61.508 1.116 1.116 1.116.558 0 1.065-.508 1.065-1.116 0-.609-.508-1.065-1.065-1.065-.61 0-1.116.456-1.116 1.065m3.653-.101c.609 0 1.065-.508 1.065-1.116 0-.558-.457-1.065-1.065-1.065-.61 0-1.116.508-1.116 1.065 0 .61.508 1.116 1.116 1.116m2.688-.761c.61 0 1.116-.508 1.116-1.116 0-.609-.508-1.064-1.116-1.064a1.04 1.04 0 0 0-1.064 1.064c0 .61.455 1.116 1.064 1.116m7.711 2.435c.61 0 1.116-.508 1.116-1.116 0-.609-.508-1.065-1.116-1.065a1.04 1.04 0 0 0-1.065 1.065c0 .61.456 1.116 1.065 1.116m-2.13-1.877c.609 0 1.064-.508 1.064-1.065 0-.609-.457-1.115-1.064-1.115-.61 0-1.116.507-1.116 1.115 0 .558.508 1.065 1.116 1.065m-2.74-.812c.61 0 1.116-.507 1.116-1.115 0-.61-.508-1.065-1.116-1.065-.558 0-1.065.457-1.065 1.065 0 .609.508 1.115 1.065 1.115m5.885 8.32a1.04 1.04 0 0 0-1.065 1.065c0 .609.457 1.115 1.065 1.115.609 0 1.115-.508 1.115-1.115 0-.61-.508-1.065-1.115-1.065m.558-2.689c-.61 0-1.116.508-1.116 1.116 0 .609.508 1.065 1.116 1.065a1.04 1.04 0 0 0 1.065-1.065c0-.61-.456-1.116-1.065-1.116m-1.471-1.522c0 .61.507 1.065 1.115 1.065a1.04 1.04 0 0 0 1.065-1.065c0-.609-.457-1.115-1.065-1.115-.609 0-1.115.508-1.115 1.115m-19.48-1.877c.609 0 1.065-.507 1.065-1.115a1.04 1.04 0 0 0-1.065-1.065c-.61 0-1.116.456-1.116 1.065s.508 1.115 1.116 1.115M92.68 13.14c.609 0 1.064-.508 1.064-1.116 0-.558-.457-1.065-1.064-1.065-.61 0-1.116.508-1.116 1.065 0 .61.508 1.116 1.116 1.116m-2.74-.761c.61 0 1.116-.508 1.116-1.116 0-.609-.508-1.064-1.116-1.064-.558 0-1.065.457-1.065 1.064 0 .61.508 1.116 1.065 1.116m-7.66 2.435c.61 0 1.065-.508 1.065-1.116a1.04 1.04 0 0 0-1.065-1.064c-.609 0-1.115.457-1.115 1.064 0 .61.507 1.116 1.115 1.116m2.13-1.877c.56 0 1.066-.508 1.066-1.065 0-.609-.508-1.115-1.065-1.115-.61 0-1.116.507-1.116 1.115 0 .559.508 1.065 1.116 1.065m2.688-.812c.61 0 1.116-.507 1.116-1.115 0-.61-.508-1.065-1.116-1.065a1.04 1.04 0 0 0-1.064 1.065c0 .609.457 1.115 1.064 1.115m-4.768 9.385c0-.609-.508-1.065-1.116-1.065-.558 0-1.065.457-1.065 1.065 0 .61.508 1.116 1.065 1.116.61 0 1.116-.508 1.116-1.116m-.558-2.638c0-.609-.457-1.115-1.065-1.115-.609 0-1.115.507-1.115 1.115 0 .61.507 1.065 1.115 1.065a1.04 1.04 0 0 0 1.065-1.065m-.71-1.572c.609 0 1.115-.457 1.115-1.065 0-.61-.507-1.116-1.115-1.116-.61 0-1.065.508-1.065 1.116 0 .609.456 1.065 1.065 1.065m25.465.71c.61 1.217 1.167 1.927 1.065 2.84-.052.914-1.065 1.573-1.47 2.537-.458-1.115-1.116-1.928-1.066-2.79.104-.812 1.27-1.978 1.472-2.587m-16.183 0c-.61 1.217-1.166 1.927-1.065 2.84.104.914 1.065 1.573 1.522 2.537.405-1.115 1.116-1.928 1.014-2.79-.052-.812-1.267-1.978-1.47-2.587M343.023 249.38c-.303-6.24-5.022-11.262-11.464-11.262-6.9 0-10.957 5.175-11.414 11.262zm6.341 11.11c-1.775 8.776-8.116 13.544-17.044 13.544-12.733 0-18.77-8.776-19.125-20.95 0-11.973 7.863-20.749 18.719-20.749 14.153 0 18.465 13.19 18.06 22.828h-29.83c-.252 6.95 3.704 13.088 12.379 13.088 5.428 0 9.181-2.587 10.348-7.761zm-46.822-14.458c-1.014-4.971-4.464-7.914-9.841-7.914-9.537 0-12.428 7.457-12.428 15.574 0 7.305 3.297 14.559 11.616 14.559 6.341 0 10.095-3.703 10.958-9.69h6.696c-1.42 9.69-7.559 15.473-17.552 15.473-12.175 0-18.668-8.472-18.668-20.342 0-11.972 6.138-21.357 18.82-21.357 9.03 0 16.284 4.21 17.197 13.697zm-41.952-12.784h6.544v39.873h-6.544zm6.544-7.152h-6.544v-8.015h6.544zm-19.683 7.152h7.914v5.784h-7.914v24.755c0 2.993.812 3.55 4.921 3.55h2.993v5.784h-4.971c-6.798 0-9.487-1.37-9.487-8.725v-25.364h-6.797v-5.784h6.797v-11.971h6.544zM205.45 260.54c.254 5.885 5.327 7.711 10.755 7.711 4.058 0 9.638-.913 9.638-5.935 0-5.073-6.493-5.935-13.037-7.407-6.493-1.47-13.037-3.601-13.037-11.261 0-8.015 7.913-11.313 14.863-11.313 8.827 0 15.827 2.74 16.385 12.48h-6.594c-.457-5.073-4.92-6.697-9.233-6.697-3.906 0-8.471 1.065-8.471 5.073 0 4.718 6.95 5.479 13.037 6.95 6.544 1.471 13.037 3.602 13.037 11.312 0 9.537-8.877 12.581-16.994 12.581-8.928 0-16.487-3.602-16.892-13.494zm-12.276 12.581h-6.138v-6.341h-.152c-2.79 4.971-7.254 7.254-12.986 7.254-10.501 0-13.697-5.986-13.697-14.559v-26.227h6.544v26.988c0 4.87 3.094 8.015 8.116 8.015 7.914 0 11.77-5.326 11.77-12.48v-22.523h6.543zm-41.85-13.747c0 7.507-3.907 15.066-16.284 15.066-10.247 0-16.03-5.682-16.03-16.03v-3.4h7.304v2.284c0 6.442 1.725 10.957 8.878 10.957 6.696 0 8.826-3.855 8.826-9.943V218.03h7.305zM82.23 239.032h-6.746v-5.784h6.746v-5.935c0-6.493 3.856-9.892 11.009-9.892 1.216 0 2.993.254 4.26.61v5.732c-1.166-.406-2.536-.559-3.702-.559-3.196 0-5.023 1.014-5.023 4.515v5.53h7.711v5.782h-7.71v34.09H82.23zm-27.291 29.22c6.848 0 12.428-5.378 12.428-15.016 0-9.74-5.58-15.118-12.428-15.118-6.849 0-12.429 5.378-12.429 15.118 0 9.638 5.58 15.015 12.429 15.015m0-35.916c12.631 0 19.378 9.182 19.378 20.9 0 11.668-6.747 20.8-19.378 20.8-12.632 0-19.379-9.132-19.379-20.8 0-11.718 6.747-20.9 19.379-20.9m220.008-34.9c-3.044 7.76-5.732 10.602-11.566 10.602-1.572 0-3.094-.152-4.565-.66v-6.037c1.216.405 2.536.913 3.855.913 2.688 0 4.16-1.319 5.377-3.602l2.74-6.797-15.828-39.67h7.407l11.667 32.67h.152l11.16-32.67h6.95zm-42.56-45.25h6.188v8.42h.152c3.145-6.391 7.558-9.536 14.66-9.333v6.95c-10.602 0-14.457 6.036-14.457 16.131v17.755h-6.544zm-12.734 0h7.965v5.833h-7.965v24.756c0 2.993.863 3.5 4.921 3.5h3.044v5.834h-5.022c-6.798 0-9.487-1.42-9.487-8.725v-25.365h-6.797v-5.833h6.797v-11.921h6.544zm-41.952 27.342c.203 5.834 5.327 7.711 10.704 7.711 4.109 0 9.638-.913 9.638-5.935 0-5.073-6.493-5.935-13.037-7.407-6.493-1.47-13.037-3.652-13.037-11.261 0-8.015 7.964-11.363 14.914-11.363 8.776 0 15.827 2.79 16.334 12.53h-6.544c-.455-5.124-4.92-6.747-9.283-6.747-3.906 0-8.472 1.115-8.472 5.123 0 4.667 6.95 5.479 13.038 6.95 6.544 1.42 13.037 3.602 13.037 11.312 0 9.487-8.878 12.581-16.943 12.581-8.98 0-16.538-3.652-16.893-13.494zm-18.87-27.292h6.543v39.873h-6.544zm6.543-7.203h-6.544v-8.015h6.544zm-47.634 7.153h6.138v6.34h.152c2.79-4.92 7.255-7.253 12.987-7.253 10.5 0 13.696 6.036 13.696 14.61v26.226h-6.544V165.07c0-4.82-3.043-8.015-8.065-8.015-7.965 0-11.82 5.326-11.82 12.53v22.523h-6.544zm-14.61-7.153h6.544v-8.015h-6.543zm0 47.076h6.544v-39.873h-6.543zm-64.17-55.09h10.044l17.349 46.263 17.45-46.264h9.994v55.09h-6.9V146.25h-.202l-17.197 45.858h-6.24L46.062 146.25h-.152v45.858h-6.95zM0 273.12h6.493V.001H0zm0 0"/>
</svg>
